<?xml version="1.0" standalone="no"?>
<!DOCTYPE svg PUBLIC "-//W3C//DTD SVG 20010904//EN"
 "http://www.w3.org/TR/2001/REC-SVG-20010904/DTD/svg10.dtd">
<svg version="1.0" xmlns="http://www.w3.org/2000/svg"
 width="256.000000pt" height="256.000000pt" viewBox="0 0 256.000000 256.000000"
 preserveAspectRatio="xMidYMid meet">

<g transform="translate(0.000000,256.000000) scale(0.100000,-0.100000)"
fill="#000000" stroke="none">
<path d="M365 2286 c-37 -88 -58 -210 -59 -336 -1 -137 9 -193 56 -308 l30
-73 -35 -53 c-51 -77 -92 -162 -119 -246 -20 -66 -23 -95 -23 -235 0 -185 12
-242 77 -375 76 -157 223 -275 428 -344 374 -125 923 -103 1244 49 189 90 298
220 362 432 23 75 27 107 28 223 1 197 -39 336 -143 488 l-41 60 25 55 c76
173 84 401 21 612 -9 28 -22 59 -30 70 -13 18 -18 19 -63 7 -164 -43 -345
-182 -430 -331 -15 -25 -28 -48 -29 -50 -2 -2 -45 7 -96 20 -84 22 -113 24
-293 23 -181 -1 -208 -3 -287 -26 l-88 -25 -21 41 c-34 66 -109 153 -184 213
-77 62 -208 128 -273 139 -41 6 -42 6 -57 -30z m197 -142 c120 -80 231 -202
278 -307 30 -65 28 -67 -45 -67 -77 0 -148 -25 -254 -87 -40 -24 -75 -42 -76
-41 -5 9 -26 69 -35 107 -29 113 -29 313 0 421 10 37 12 39 37 29 15 -5 57
-30 95 -55z m1589 -108 c12 -98 1 -232 -26 -321 -24 -81 -26 -82 -79 -45 -88
60 -174 93 -258 98 -72 4 -78 6 -78 27 0 37 57 138 114 201 66 73 144 134 228
179 l63 34 13 -42 c7 -23 17 -82 23 -131z m-1038 -310 c-11 -133 59 -226 172
-226 59 0 104 19 138 59 43 52 60 146 37 207 l-11 27 62 -7 c34 -3 64 -7 65
-9 2 -1 -4 -23 -13 -47 -28 -79 2 -156 82 -212 50 -35 137 -52 195 -39 38 8
47 6 108 -28 77 -44 121 -95 151 -177 24 -62 48 -190 39 -200 -6 -5 -158 -26
-293 -40 -69 -7 -75 -9 -75 -31 0 -17 16 -16 185 7 39 5 96 9 128 10 64 0 64
1 43 -85 -9 -35 -16 -49 -27 -46 -141 39 -302 72 -311 63 -15 -15 -1 -32 29
-32 61 0 273 -66 273 -85 0 -27 -107 -161 -173 -216 -319 -268 -895 -280
-1225 -26 -32 25 -75 64 -96 87 -51 57 -118 162 -109 171 14 13 136 46 217 60
71 12 100 28 82 46 -7 7 -208 -34 -308 -63 -18 -5 -23 5 -37 80 l-9 49 113 -6
c146 -9 175 -15 175 -37 0 -13 6 -16 28 -12 l27 6 -25 7 c-23 6 -23 7 8 8 24
1 32 5 32 20 0 21 -8 23 -219 43 -95 9 -135 16 -138 26 -9 23 24 168 52 229
34 76 66 108 145 148 61 31 69 32 111 23 59 -14 142 4 202 41 32 21 52 44 72
85 31 63 29 105 -5 149 l-20 26 27 4 c16 2 44 5 64 6 l37 1 -5 -64z"/>
<path d="M829 1426 c-80 -28 -156 -120 -147 -178 9 -62 345 -123 452 -82 16 6
18 14 13 55 -19 155 -175 256 -318 205z m152 -32 c7 -4 3 -14 -10 -28 -25 -27
-47 -78 -56 -133 -6 -37 -10 -43 -32 -43 -34 0 -145 29 -160 42 -46 38 28 137
127 169 26 9 113 4 131 -7z"/>
<path d="M1576 1424 c-86 -31 -137 -94 -156 -192 -13 -71 -3 -77 128 -77 115
0 239 23 305 56 48 25 49 59 5 125 -61 90 -178 127 -282 88z m147 -25 c62 -17
137 -95 137 -143 0 -26 -43 -42 -187 -72 -19 -4 -23 0 -23 19 0 41 -30 125
-55 156 l-25 29 27 10 c37 14 80 14 126 1z"/>
<path d="M1233 1129 c-18 -5 -35 -14 -38 -20 -7 -11 22 -49 37 -49 5 0 18 -9
29 -19 52 -48 -35 -151 -128 -151 -39 0 -94 30 -114 64 -11 18 -19 50 -19 76
0 33 -3 41 -10 30 -31 -48 4 -134 72 -178 32 -21 36 -30 42 -79 8 -66 27 -106
74 -155 64 -67 134 -73 209 -19 49 35 75 87 82 165 6 55 8 61 41 78 77 42 114
117 87 178 l-16 35 5 -45 c12 -107 -102 -181 -209 -136 -41 17 -87 70 -87 100
0 23 28 55 68 75 12 6 22 16 22 21 0 26 -95 45 -147 29z m27 -269 c10 -5 21
-23 25 -40 7 -34 25 -31 25 4 0 48 43 60 79 22 70 -75 6 -216 -98 -216 -109 0
-175 150 -96 217 29 26 38 27 65 13z"/>
<path d="M1780 1081 c0 -6 9 -9 19 -8 11 0 17 5 15 9 -7 11 -34 10 -34 -1z"/>
<path d="M869 923 c-13 -16 -12 -17 4 -4 9 7 17 15 17 17 0 8 -8 3 -21 -13z"/>
</g>
</svg>
